<?xml version="1.0" encoding="utf-8"?>
<!-- Generator: Adobe Illustrator 17.0.0, SVG Export Plug-In . SVG Version: 6.00 Build 0)  -->
<!DOCTYPE svg PUBLIC "-//W3C//DTD SVG 1.1//EN" "http://www.w3.org/Graphics/SVG/1.1/DTD/svg11.dtd">
<svg version="1.1" id="图层_1" xmlns="http://www.w3.org/2000/svg" xmlns:xlink="http://www.w3.org/1999/xlink" x="0px" y="0px"
	 width="17px" height="17px" viewBox="0 0 17 17" enable-background="new 0 0 17 17" xml:space="preserve">
<g>
	<g>
		<path fill-rule="evenodd" clip-rule="evenodd" fill="#030000" d="M9.313,10.127l-0.928,0.928c0.269,0.688,0.128,1.499-0.428,2.055
			l-1.356,1.356c-0.749,0.749-1.963,0.749-2.712,0L2.535,13.11c-0.749-0.749-0.749-1.963,0-2.711L3.89,9.042
			c0.556-0.556,1.367-0.697,2.055-0.428l0.928-0.928L6.67,7.483c-0.786-0.786-2.061-0.786-2.847,0L0.976,10.33
			c-0.786,0.786-0.786,2.061,0,2.847l2.847,2.847c0.786,0.786,2.061,0.786,2.847,0l2.847-2.847c0.786-0.786,0.786-2.061,0-2.847
			L9.313,10.127z M16.024,3.823l-2.847-2.847c-0.786-0.786-2.061-0.786-2.847,0L7.483,3.823c-0.786,0.786-0.786,2.061,0,2.847
			l0.203,0.203l0.928-0.928C8.345,5.257,8.487,4.446,9.042,3.89l1.356-1.356c0.749-0.749,1.963-0.749,2.711,0l1.356,1.356
			c0.749,0.749,0.749,1.963,0,2.711L13.11,7.958c-0.556,0.556-1.367,0.697-2.055,0.428l-0.928,0.928l0.203,0.203
			c0.786,0.786,2.061,0.786,2.847,0l2.847-2.847C16.811,5.884,16.811,4.609,16.024,3.823z M5.653,11.347
			c0.225,0.225,0.725,0.088,1.118-0.305l4.271-4.271c0.393-0.393,0.53-0.894,0.305-1.118c-0.225-0.225-0.725-0.088-1.118,0.305
			l-4.271,4.271C5.565,10.622,5.428,11.122,5.653,11.347z"/>
	</g>
</g>
</svg>
